/* XPM */
static char *MyIcon_xpm[]={
"32 32 8 1",
"c c #000000",
"a c #006411",
". c #1fb714",
"# c #404040",
"b c #808080",
"d c #90713a",
"e c #fcf305",
"f c #ffffff",
"........#..a...........ba...b...",
"...a......cccccccb.a.b..........",
"b.....#.ccdddddddaca........a...",
"......ccdd.......ddda..a...a....",
".....cdd....a.....adda...ab.....",
"..a.ceda.........cddadc..b...b..",
"..bcddeda..ccccccdda..dc..ba....",
"aa.adadedccdddddada...daba.b.a..",
"..ad..adeddeeeedddc.b..da.......",
"b.ad..bcdfdddddeedda...da...b.#a",
".cd..a.cddfddeeddeda...da...a...",
".ad..badeddfdddeddddab..b.b.....",
".ad...adedddfdddededa..b....b...",
"bad...adededdfddededa..a....a...",
"aad...cdededddfdddeda.b.b......b",
".ad.baaddededddfddeda.#......b.a",
".cd...aadeddeeddfdeaa...b.......",
"..ad.cddddeddddddeda..ccccc...a.",
"#.adaddaadddeeeeededccdddddcc.b.",
".#.adda..aadddddaadeddeeeedddcaa",
"...ada.b...aaaaa..cdfdddddeedda.",
".a.acd..........d.cdddddeeddedc.",
"a..#.cdd....d....cdeddfdddedddda",
".#....aaddd....d.adedddfdddededa",
"a...a...aa.d..b.dadededdfddededa",
".....a....d......adededddfdddeda",
"...a.b.a..bd.....addededddfddeda",
"...b.....#a.......adeddeeddfdea.",
"....b.....b.......addeddddddeda.",
"..a#...b...d.......adddeeeeeda..",
"....#......b..b.....aadddddaa...",
"..b.....a...a.a.......aaaaa..a.."};
